<?xml version="1.0" encoding="UTF-8" standalone="no"?>
<svg
   xmlns:dc="http://purl.org/dc/elements/1.1/"
   xmlns:cc="http://creativecommons.org/ns#"
   xmlns:rdf="http://www.w3.org/1999/02/22-rdf-syntax-ns#"
   xmlns:svg="http://www.w3.org/2000/svg"
   xmlns="http://www.w3.org/2000/svg"
   xmlns:xlink="http://www.w3.org/1999/xlink"
   xmlns:sodipodi="http://sodipodi.sourceforge.net/DTD/sodipodi-0.dtd"
   xmlns:inkscape="http://www.inkscape.org/namespaces/inkscape"
   version="1.1"
   id="Layer_1"
   x="0px"
   y="0px"
   width="482.556px"
   height="209.281px"
   viewBox="45.002 196.466 482.556 209.281"
   enable-background="new 45.002 196.466 482.556 209.281"
   xml:space="preserve"
   sodipodi:docname="logo.svg"
   inkscape:version="0.92.4 (5da689c313, 2019-01-14)"><metadata
   id="metadata3745"><rdf:RDF><cc:Work
       rdf:about=""><dc:format>image/svg+xml</dc:format><dc:type
         rdf:resource="http://purl.org/dc/dcmitype/StillImage" /><dc:title></dc:title></cc:Work></rdf:RDF></metadata><defs
   id="defs3743"><linearGradient
     inkscape:collect="always"
     id="linearGradient4650"><stop
       style="stop-color:#e42adb;stop-opacity:1;"
       offset="0"
       id="stop4646" /><stop
       style="stop-color:#e42adb;stop-opacity:0;"
       offset="1"
       id="stop4648" /></linearGradient><linearGradient
     inkscape:collect="always"
     xlink:href="#linearGradient4650"
     id="linearGradient4652"
     x1="-24.836172"
     y1="375.0069"
     x2="446.72228"
     y2="375.0069"
     gradientUnits="userSpaceOnUse"
     gradientTransform="translate(34.472706,4.3318315)" /></defs><sodipodi:namedview
   pagecolor="#ffffff"
   bordercolor="#666666"
   borderopacity="1"
   objecttolerance="10"
   gridtolerance="10"
   guidetolerance="10"
   inkscape:pageopacity="0"
   inkscape:pageshadow="2"
   inkscape:window-width="2560"
   inkscape:window-height="1387"
   id="namedview3741"
   showgrid="false"
   inkscape:zoom="1.2459694"
   inkscape:cx="478.17919"
   inkscape:cy="101.08613"
   inkscape:window-x="1912"
   inkscape:window-y="-8"
   inkscape:window-maximized="1"
   inkscape:current-layer="layer3" />


<rect
   x="723.057"
   y="240.921"
   fill="none"
   width="101.123"
   height="56.18"
   id="rect3734" />

<g
   inkscape:groupmode="layer"
   id="layer2"
   inkscape:label="Layer 2"><rect
     id="rect3761"
     width="485.96701"
     height="225.12592"
     x="41.99229"
     y="185.43661"
     style="fill:#303030;fill-opacity:1" /></g><g
   inkscape:groupmode="layer"
   id="layer1"
   inkscape:label="Layer 1"><path
     style=""
     fill="#EC2854"
     stroke="#EC2854"
     stroke-miterlimit="10"
     d="M217.198,232.5c-16.597,6.907-52.729,34.028-36.249,58.467  c7.288,10.807,19.94,18.442,31.471,22.057c10.732,3.363,23.897-0.761,33.709,3.721c-2.09,5.103-9.479,23.689-15.812,22.319  c-11.827-2.544-23.787-0.445-33.07,8.485c-18.958-26.295-45.97-36.974-75.739-29.676c22.066-27.2,16.719-55.687-6.468-81.622  c-13.999-15.657-47.993-37.963-69.845-28.853C99.786,184.66,166.314,201.843,217.198,232.5  C208.383,236.169,213.581,230.321,217.198,232.5z"
     id="path3730" /><path
     style=""
     fill="#EC2854"
     stroke="#EC2854"
     stroke-miterlimit="10"
     d="M355.365,232.5c16.595,6.908,52.729,34.028,36.249,58.467  c-7.288,10.807-19.939,18.443-31.473,22.059c-10.731,3.365-23.896-0.762-33.712,3.721c2.104,5.112,9.464,23.671,15.812,22.318  c11.826-2.542,23.789-0.448,33.068,8.484c18.959-26.294,45.974-36.975,75.738-29.676c-22.056-27.206-16.726-55.682,6.471-81.622  c13.997-15.654,47.995-37.967,69.847-28.854C472.779,184.664,406.249,201.835,355.365,232.5  C364.182,236.169,358.981,230.32,355.365,232.5z"
     id="path3732" /><g
     style=""
     id="g3738">
	<path
   fill="#FFFFFF"
   d="M225.434,293.58h23.199v15.919c6.874-6.563,14.154-11.274,21.841-14.137   c7.687-2.863,16.234-4.295,25.64-4.295c20.621,0,34.549,5.552,41.785,16.653c3.979,6.074,5.969,14.766,5.969,26.077v71.95h-24.826   v-70.693c0-6.842-1.312-12.358-3.935-16.547c-4.344-6.982-12.209-10.473-23.604-10.473c-5.789,0-10.538,0.455-14.246,1.363   c-6.693,1.536-12.572,4.608-17.636,9.216c-4.07,3.701-6.716,7.522-7.937,11.467c-1.221,3.945-1.832,9.582-1.832,16.913v58.754   h-24.419L225.434,293.58L225.434,293.58z"
   id="path3736" />
</g></g><g
   inkscape:groupmode="layer"
   id="layer3"
   inkscape:label="Layer 3"><text
     xml:space="preserve"
     style="font-style:normal;font-variant:normal;font-weight:normal;font-stretch:normal;font-size:123.41769409px;line-height:1.25;font-family:'Edwardian Script ITC';-inkscape-font-specification:'Edwardian Script ITC';letter-spacing:0px;word-spacing:0px;opacity:1;fill:#e22ae4;fill-opacity:1;stroke:none;stroke-width:3.08544254;"
     x="9.6365337"
     y="396.99966"
     id="text3749"
     transform="rotate(-13.794747)"><tspan
       sodipodi:role="line"
       id="tspan3747"
       x="9.6365337"
       y="396.99966"
       style="font-style:normal;font-variant:normal;font-weight:normal;font-stretch:normal;font-size:192px;font-family:Chiller;-inkscape-font-specification:Chiller;fill:#e22ae4;fill-opacity:1;stroke-width:3.08544254">scraper</tspan></text>
</g></svg>